<?xml version="1.0" encoding="UTF-8" standalone="no"?>
<!DOCTYPE svg PUBLIC "-//W3C//DTD SVG 1.1//EN" "http://www.w3.org/Graphics/SVG/1.1/DTD/svg11.dtd">
<svg width="100%" height="100%" viewBox="0 0 1200 50" version="1.1" xmlns="http://www.w3.org/2000/svg" xmlns:xlink="http://www.w3.org/1999/xlink" xml:space="preserve" xmlns:serif="http://www.serif.com/" style="fill-rule:evenodd;clip-rule:evenodd;stroke-linejoin:round;stroke-miterlimit:2;">
    <g transform="matrix(0.999822,7.09145e-17,-7.09145e-17,-0.420761,0.0620125,50.1194)">
        <path d="M0,0L0.673,19.043C20.948,102.513 103.59,78.46 158,74.29C228.36,68.92 294.33,40.98 364.8,36.79C438.64,32.43 512.34,53.67 583,72.05C652.27,90.05 721.3,96.93 792.4,85.13C828.55,79.13 862.25,67.29 896.85,55.79C989.49,25 1086.12,-13.102 1199.36,26.275L1200,0L0,0Z" style="fill:rgb(61,228,193);fill-opacity:0.25;fill-rule:nonzero;"/>
    </g>
    <g transform="matrix(0.999822,7.09145e-17,-7.09145e-17,-0.420761,0.0620125,50.1194)">
        <path d="M0,0L0,15.81C13,36.92 27.64,56.86 47.69,72.05C99.41,111.27 165,111 224.58,91.58C255.73,81.43 284.67,65.51 314.25,51.78C355.17,32.78 398.98,5.78 445.08,2.11C481.34,-0.74 515.98,11.53 543.68,33.67C575.45,59.06 606,95.67 647.31,106.67C687.75,117.46 728.66,99.98 766.44,82.39C804.22,64.8 841.6,43.39 883.36,39.34C943.09,33.49 996.64,62.22 1052.26,78.18C1082.46,86.84 1111.26,84.35 1139.35,70.68C1161.78,59.79 1187.35,43.75 1200,21.44L1200,0L0,0Z" style="fill:rgb(61,228,193);fill-opacity:0.5;fill-rule:nonzero;"/>
    </g>
    <g transform="matrix(0.999822,7.09145e-17,-7.09145e-17,-0.420761,0.0620125,50.1194)">
        <path d="M0,0L0,5.63C149.93,59 314.09,71.32 475.83,42.57C518.83,34.93 560.06,22.45 603.44,16.11C662.44,7.48 715.92,28.35 769,51.51C827.93,77.22 886,95.24 951.2,90C1037.73,83 1123.66,44.29 1200,5.19L1200,0L0,0Z" style="fill:rgb(61,228,193);fill-rule:nonzero;"/>
    </g>
</svg>
